<mxfile host="app.diagrams.net" modified="2023-03-21T22:31:32.813Z" agent="5.0 (Macintosh; Intel Mac OS X 10_15_7) AppleWebKit/537.36 (KHTML, like Gecko) Chrome/111.0.0.0 Safari/537.36" etag="mxPjLmkZ_mHbMKifd9iV" version="21.0.10" type="github">
  <diagram name="Page-1" id="S5jI-6m5HawfkArZqoIq">
    <mxGraphModel dx="954" dy="616" grid="1" gridSize="10" guides="1" tooltips="1" connect="1" arrows="1" fold="1" page="1" pageScale="1" pageWidth="827" pageHeight="1169" math="0" shadow="0">
      <root>
        <mxCell id="0" />
        <mxCell id="1" parent="0" />
        <mxCell id="GWbrni16YHYWj7WVsbbk-1" value="Intégration DRAW.io hébergé sur GITHUB dans CODIMD" style="rounded=1;whiteSpace=wrap;html=1;" vertex="1" parent="1">
          <mxGeometry x="100" y="40" width="650" height="100" as="geometry" />
        </mxCell>
        <mxCell id="GWbrni16YHYWj7WVsbbk-2" value="Bonjour" style="shape=callout;whiteSpace=wrap;html=1;perimeter=calloutPerimeter;" vertex="1" parent="1">
          <mxGeometry x="490" y="210" width="120" height="80" as="geometry" />
        </mxCell>
        <mxCell id="GWbrni16YHYWj7WVsbbk-3" value="Bonjour" style="shape=callout;whiteSpace=wrap;html=1;perimeter=calloutPerimeter;position2=0.75;" vertex="1" parent="1">
          <mxGeometry x="210" y="290" width="120" height="80" as="geometry" />
        </mxCell>
      </root>
    </mxGraphModel>
  </diagram>
</mxfile>
